<svg xmlns="http://www.w3.org/2000/svg" width="456" height="393" viewBox="0 0 456 393" fill="none">
  <defs>
    <linearGradient id="g" x1="0" y1="0" x2="456" y2="393" gradientUnits="userSpaceOnUse">
      <stop offset="0" stop-color="#58dbf6"/>
      <stop offset="1" stop-color="#58cfdf"/>
    </linearGradient>
  </defs>
  <!-- Plane body -->
  <path d="M 440.00 10.00 L 439.00 11.00 L 437.00 11.00 L 436.00 12.00 L 435.00 12.00 L 434.00 13.00 L 432.00 13.00 L 431.00 14.00 L 430.00 14.00 L 429.00 15.00 L 427.00 15.00 L 426.00 16.00 L 425.00 16.00 L 424.00 17.00 L 423.00 17.00 L 422.00 18.00 L 420.00 18.00 L 419.00 19.00 L 418.00 19.00 L 417.00 20.00 L 415.00 20.00 L 414.00 21.00 L 413.00 21.00 L 412.00 22.00 L 410.00 22.00 L 409.00 23.00 L 408.00 23.00 L 407.00 24.00 L 405.00 24.00 L 404.00 25.00 L 403.00 25.00 L 402.00 26.00 L 401.00 26.00 L 400.00 27.00 L 398.00 27.00 L 397.00 28.00 L 396.00 28.00 L 395.00 29.00 L 393.00 29.00 L 392.00 30.00 L 391.00 30.00 L 390.00 31.00 L 388.00 31.00 L 387.00 32.00 L 386.00 32.00 L 385.00 33.00 L 383.00 33.00 L 382.00 34.00 L 381.00 34.00 L 380.00 35.00 L 378.00 35.00 L 377.00 36.00 L 376.00 36.00 L 375.00 37.00 L 374.00 37.00 L 373.00 38.00 L 371.00 38.00 L 370.00 39.00 L 369.00 39.00 L 368.00 40.00 L 366.00 40.00 L 365.00 41.00 L 364.00 41.00 L 363.00 42.00 L 362.00 42.00 L 361.00 43.00 L 359.00 43.00 L 358.00 44.00 L 357.00 44.00 L 356.00 45.00 L 354.00 45.00 L 353.00 46.00 L 352.00 46.00 L 351.00 47.00 L 349.00 47.00 L 348.00 48.00 L 347.00 48.00 L 346.00 49.00 L 345.00 49.00 L 344.00 50.00 L 342.00 50.00 L 341.00 51.00 L 340.00 51.00 L 339.00 52.00 L 337.00 52.00 L 336.00 53.00 L 335.00 53.00 L 334.00 54.00 L 333.00 54.00 L 332.00 55.00 L 330.00 55.00 L 329.00 56.00 L 328.00 56.00 L 327.00 57.00 L 325.00 57.00 L 324.00 58.00 L 323.00 58.00 L 322.00 59.00 L 320.00 59.00 L 319.00 60.00 L 318.00 60.00 L 317.00 61.00 L 315.00 61.00 L 314.00 62.00 L 313.00 62.00 L 312.00 63.00 L 310.00 63.00 L 309.00 64.00 L 308.00 64.00 L 307.00 65.00 L 306.00 65.00 L 305.00 66.00 L 303.00 66.00 L 302.00 67.00 L 301.00 67.00 L 300.00 68.00 L 298.00 68.00 L 297.00 69.00 L 296.00 69.00 L 295.00 70.00 L 294.00 70.00 L 293.00 71.00 L 291.00 71.00 L 290.00 72.00 L 289.00 72.00 L 288.00 73.00 L 286.00 73.00 L 285.00 74.00 L 284.00 74.00 L 283.00 75.00 L 281.00 75.00 L 280.00 76.00 L 279.00 76.00 L 278.00 77.00 L 276.00 77.00 L 275.00 78.00 L 274.00 78.00 L 273.00 79.00 L 272.00 79.00 L 271.00 80.00 L 269.00 80.00 L 268.00 81.00 L 267.00 81.00 L 266.00 82.00 L 264.00 82.00 L 263.00 83.00 L 262.00 83.00 L 261.00 84.00 L 259.00 84.00 L 258.00 85.00 L 257.00 85.00 L 256.00 86.00 L 255.00 86.00 L 254.00 87.00 L 252.00 87.00 L 251.00 88.00 L 250.00 88.00 L 249.00 89.00 L 247.00 89.00 L 246.00 90.00 L 245.00 90.00 L 244.00 91.00 L 242.00 91.00 L 241.00 92.00 L 240.00 92.00 L 239.00 93.00 L 238.00 93.00 L 237.00 94.00 L 235.00 94.00 L 234.00 95.00 L 233.00 95.00 L 232.00 96.00 L 230.00 96.00 L 229.00 97.00 L 228.00 97.00 L 227.00 98.00 L 225.00 98.00 L 224.00 99.00 L 223.00 99.00 L 222.00 100.00 L 220.00 100.00 L 219.00 101.00 L 218.00 101.00 L 217.00 102.00 L 216.00 102.00 L 215.00 103.00 L 213.00 103.00 L 212.00 104.00 L 211.00 104.00 L 210.00 105.00 L 208.00 105.00 L 207.00 106.00 L 206.00 106.00 L 205.00 107.00 L 203.00 107.00 L 202.00 108.00 L 201.00 108.00 L 200.00 109.00 L 198.00 109.00 L 197.00 110.00 L 196.00 110.00 L 195.00 111.00 L 193.00 111.00 L 192.00 112.00 L 191.00 112.00 L 190.00 113.00 L 188.00 113.00 L 187.00 114.00 L 186.00 114.00 L 185.00 115.00 L 184.00 115.00 L 183.00 116.00 L 181.00 116.00 L 180.00 117.00 L 179.00 117.00 L 178.00 118.00 L 176.00 118.00 L 175.00 119.00 L 174.00 119.00 L 173.00 120.00 L 171.00 120.00 L 170.00 121.00 L 169.00 121.00 L 168.00 122.00 L 167.00 122.00 L 166.00 123.00 L 164.00 123.00 L 163.00 124.00 L 162.00 124.00 L 161.00 125.00 L 159.00 125.00 L 158.00 126.00 L 157.00 126.00 L 156.00 127.00 L 154.00 127.00 L 153.00 128.00 L 152.00 128.00 L 151.00 129.00 L 149.00 129.00 L 148.00 130.00 L 147.00 130.00 L 146.00 131.00 L 145.00 131.00 L 144.00 132.00 L 142.00 132.00 L 141.00 133.00 L 140.00 133.00 L 139.00 134.00 L 137.00 134.00 L 136.00 135.00 L 135.00 135.00 L 134.00 136.00 L 132.00 136.00 L 131.00 137.00 L 130.00 137.00 L 129.00 138.00 L 127.00 138.00 L 126.00 139.00 L 125.00 139.00 L 124.00 140.00 L 122.00 140.00 L 121.00 141.00 L 120.00 141.00 L 119.00 142.00 L 117.00 142.00 L 116.00 143.00 L 115.00 143.00 L 114.00 144.00 L 113.00 144.00 L 112.00 145.00 L 110.00 145.00 L 109.00 146.00 L 107.00 146.00 L 106.00 147.00 L 105.00 147.00 L 104.00 148.00 L 103.00 148.00 L 102.00 149.00 L 100.00 149.00 L 99.00 150.00 L 98.00 150.00 L 97.00 151.00 L 95.00 151.00 L 94.00 152.00 L 93.00 152.00 L 92.00 153.00 L 90.00 153.00 L 89.00 154.00 L 88.00 154.00 L 87.00 155.00 L 85.00 155.00 L 84.00 156.00 L 83.00 156.00 L 82.00 157.00 L 81.00 157.00 L 80.00 158.00 L 78.00 158.00 L 77.00 159.00 L 76.00 159.00 L 75.00 160.00 L 73.00 160.00 L 72.00 161.00 L 71.00 161.00 L 70.00 162.00 L 68.00 162.00 L 67.00 163.00 L 66.00 163.00 L 65.00 164.00 L 63.00 164.00 L 62.00 165.00 L 61.00 165.00 L 60.00 166.00 L 59.00 166.00 L 58.00 167.00 L 56.00 167.00 L 55.00 168.00 L 53.00 168.00 L 52.00 169.00 L 51.00 169.00 L 50.00 170.00 L 48.00 170.00 L 47.00 171.00 L 46.00 171.00 L 45.00 172.00 L 43.00 172.00 L 42.00 173.00 L 41.00 173.00 L 40.00 174.00 L 38.00 174.00 L 37.00 175.00 L 36.00 175.00 L 35.00 176.00 L 34.00 176.00 L 33.00 177.00 L 31.00 177.00 L 30.00 178.00 L 29.00 178.00 L 28.00 179.00 L 26.00 179.00 L 25.00 180.00 L 24.00 180.00 L 23.00 181.00 L 21.00 181.00 L 20.00 182.00 L 19.00 182.00 L 18.00 183.00 L 16.00 183.00 L 15.00 184.00 L 14.00 184.00 L 13.00 185.00 L 11.00 185.00 L 10.00 186.00 L 10.00 190.00 L 11.00 190.00 L 12.00 191.00 L 13.00 191.00 L 14.00 192.00 L 15.00 192.00 L 16.00 193.00 L 17.00 193.00 L 18.00 194.00 L 19.00 194.00 L 20.00 195.00 L 22.00 195.00 L 23.00 196.00 L 24.00 196.00 L 25.00 197.00 L 26.00 197.00 L 27.00 198.00 L 28.00 198.00 L 29.00 199.00 L 31.00 199.00 L 32.00 200.00 L 33.00 200.00 L 34.00 201.00 L 35.00 201.00 L 36.00 202.00 L 37.00 202.00 L 38.00 203.00 L 39.00 203.00 L 40.00 204.00 L 41.00 204.00 L 42.00 205.00 L 44.00 205.00 L 45.00 206.00 L 46.00 206.00 L 47.00 207.00 L 48.00 207.00 L 49.00 208.00 L 50.00 208.00 L 51.00 209.00 L 52.00 209.00 L 53.00 210.00 L 54.00 210.00 L 55.00 211.00 L 57.00 211.00 L 58.00 212.00 L 59.00 212.00 L 60.00 213.00 L 61.00 213.00 L 62.00 214.00 L 63.00 214.00 L 64.00 215.00 L 65.00 215.00 L 66.00 216.00 L 67.00 216.00 L 68.00 217.00 L 70.00 217.00 L 71.00 218.00 L 72.00 218.00 L 73.00 219.00 L 74.00 219.00 L 75.00 220.00 L 76.00 220.00 L 77.00 221.00 L 78.00 221.00 L 79.00 222.00 L 80.00 222.00 L 81.00 223.00 L 82.00 223.00 L 83.00 224.00 L 85.00 224.00 L 86.00 225.00 L 87.00 225.00 L 88.00 226.00 L 89.00 226.00 L 90.00 227.00 L 91.00 227.00 L 92.00 228.00 L 93.00 228.00 L 94.00 229.00 L 95.00 229.00 L 96.00 230.00 L 98.00 230.00 L 99.00 231.00 L 100.00 231.00 L 101.00 232.00 L 102.00 232.00 L 103.00 233.00 L 104.00 233.00 L 105.00 234.00 L 106.00 234.00 L 107.00 235.00 L 108.00 235.00 L 112.00 239.00 L 112.00 240.00 L 113.00 241.00 L 113.00 246.00 L 114.00 247.00 L 114.00 253.00 L 115.00 254.00 L 115.00 260.00 L 116.00 261.00 L 116.00 267.00 L 117.00 268.00 L 117.00 274.00 L 118.00 275.00 L 118.00 282.00 L 119.00 283.00 L 119.00 289.00 L 120.00 290.00 L 120.00 295.00 L 121.00 296.00 L 121.00 303.00 L 122.00 304.00 L 122.00 309.00 L 123.00 310.00 L 123.00 316.00 L 124.00 317.00 L 124.00 323.00 L 125.00 324.00 L 125.00 330.00 L 126.00 331.00 L 126.00 337.00 L 127.00 338.00 L 127.00 344.00 L 128.00 345.00 L 128.00 351.00 L 129.00 352.00 L 129.00 356.00 L 133.00 356.00 L 134.00 355.00 L 135.00 355.00 L 137.00 353.00 L 138.00 353.00 L 140.00 351.00 L 141.00 351.00 L 143.00 349.00 L 144.00 349.00 L 145.00 348.00 L 146.00 348.00 L 148.00 346.00 L 149.00 346.00 L 151.00 344.00 L 152.00 344.00 L 154.00 342.00 L 155.00 342.00 L 157.00 340.00 L 158.00 340.00 L 160.00 338.00 L 161.00 338.00 L 163.00 336.00 L 164.00 336.00 L 165.00 335.00 L 166.00 335.00 L 168.00 333.00 L 169.00 333.00 L 171.00 331.00 L 172.00 331.00 L 174.00 329.00 L 175.00 329.00 L 177.00 327.00 L 178.00 327.00 L 180.00 325.00 L 181.00 325.00 L 182.00 324.00 L 183.00 324.00 L 185.00 322.00 L 186.00 322.00 L 188.00 320.00 L 189.00 320.00 L 191.00 318.00 L 192.00 318.00 L 194.00 316.00 L 195.00 316.00 L 197.00 314.00 L 198.00 314.00 L 200.00 312.00 L 201.00 312.00 L 202.00 311.00 L 211.00 311.00 L 212.00 312.00 L 213.00 312.00 L 224.00 323.00 L 224.00 324.00 L 232.00 332.00 L 232.00 333.00 L 243.00 344.00 L 243.00 345.00 L 254.00 356.00 L 254.00 357.00 L 266.00 369.00 L 266.00 370.00 L 278.00 382.00 L 283.00 382.00 L 283.00 380.00 L 284.00 379.00 L 284.00 378.00 L 285.00 377.00 L 285.00 376.00 L 286.00 375.00 L 286.00 374.00 L 287.00 373.00 L 287.00 371.00 L 288.00 370.00 L 288.00 369.00 L 289.00 368.00 L 289.00 367.00 L 290.00 366.00 L 290.00 365.00 L 291.00 364.00 L 291.00 362.00 L 292.00 361.00 L 292.00 360.00 L 293.00 359.00 L 293.00 358.00 L 294.00 357.00 L 294.00 356.00 L 295.00 355.00 L 295.00 354.00 L 296.00 353.00 L 296.00 351.00 L 297.00 350.00 L 297.00 349.00 L 298.00 348.00 L 298.00 347.00 L 299.00 346.00 L 299.00 345.00 L 300.00 344.00 L 300.00 342.00 L 301.00 341.00 L 301.00 340.00 L 302.00 339.00 L 302.00 338.00 L 303.00 337.00 L 303.00 336.00 L 304.00 335.00 L 304.00 333.00 L 305.00 332.00 L 305.00 331.00 L 306.00 330.00 L 306.00 329.00 L 307.00 328.00 L 307.00 327.00 L 308.00 326.00 L 308.00 324.00 L 309.00 323.00 L 309.00 322.00 L 310.00 321.00 L 310.00 320.00 L 311.00 319.00 L 311.00 318.00 L 312.00 317.00 L 312.00 316.00 L 313.00 315.00 L 313.00 313.00 L 314.00 312.00 L 314.00 311.00 L 315.00 310.00 L 315.00 309.00 L 316.00 308.00 L 316.00 306.00 L 317.00 305.00 L 317.00 304.00 L 318.00 303.00 L 318.00 302.00 L 319.00 301.00 L 319.00 300.00 L 320.00 299.00 L 320.00 297.00 L 321.00 296.00 L 321.00 295.00 L 322.00 294.00 L 322.00 293.00 L 323.00 292.00 L 323.00 291.00 L 324.00 290.00 L 324.00 288.00 L 325.00 287.00 L 325.00 286.00 L 326.00 285.00 L 326.00 284.00 L 327.00 283.00 L 327.00 282.00 L 328.00 281.00 L 328.00 279.00 L 329.00 278.00 L 329.00 277.00 L 330.00 276.00 L 330.00 275.00 L 331.00 274.00 L 331.00 272.00 L 332.00 271.00 L 332.00 270.00 L 333.00 269.00 L 333.00 268.00 L 334.00 267.00 L 334.00 266.00 L 335.00 265.00 L 335.00 263.00 L 336.00 262.00 L 336.00 261.00 L 337.00 260.00 L 337.00 259.00 L 338.00 258.00 L 338.00 256.00 L 339.00 255.00 L 339.00 254.00 L 340.00 253.00 L 340.00 252.00 L 341.00 251.00 L 341.00 250.00 L 342.00 249.00 L 342.00 247.00 L 343.00 246.00 L 343.00 245.00 L 344.00 244.00 L 344.00 243.00 L 345.00 242.00 L 345.00 240.00 L 346.00 239.00 L 346.00 238.00 L 347.00 237.00 L 347.00 236.00 L 348.00 235.00 L 348.00 233.00 L 349.00 232.00 L 349.00 231.00 L 350.00 230.00 L 350.00 229.00 L 351.00 228.00 L 351.00 227.00 L 352.00 226.00 L 352.00 224.00 L 353.00 223.00 L 353.00 222.00 L 354.00 221.00 L 354.00 220.00 L 355.00 219.00 L 355.00 217.00 L 356.00 216.00 L 356.00 215.00 L 357.00 214.00 L 357.00 213.00 L 358.00 212.00 L 358.00 211.00 L 359.00 210.00 L 359.00 208.00 L 360.00 207.00 L 360.00 206.00 L 361.00 205.00 L 361.00 204.00 L 362.00 203.00 L 362.00 202.00 L 363.00 201.00 L 363.00 199.00 L 364.00 198.00 L 364.00 197.00 L 365.00 196.00 L 365.00 195.00 L 366.00 194.00 L 366.00 193.00 L 367.00 192.00 L 367.00 190.00 L 368.00 189.00 L 368.00 188.00 L 369.00 187.00 L 369.00 186.00 L 370.00 185.00 L 370.00 184.00 L 371.00 183.00 L 371.00 181.00 L 372.00 180.00 L 372.00 179.00 L 373.00 178.00 L 373.00 177.00 L 374.00 176.00 L 374.00 175.00 L 375.00 174.00 L 375.00 172.00 L 376.00 171.00 L 376.00 170.00 L 377.00 169.00 L 377.00 168.00 L 378.00 167.00 L 378.00 165.00 L 379.00 164.00 L 379.00 163.00 L 380.00 162.00 L 380.00 161.00 L 381.00 160.00 L 381.00 159.00 L 382.00 158.00 L 382.00 156.00 L 383.00 155.00 L 383.00 154.00 L 384.00 153.00 L 384.00 152.00 L 385.00 151.00 L 385.00 149.00 L 386.00 148.00 L 386.00 147.00 L 387.00 146.00 L 387.00 145.00 L 388.00 144.00 L 388.00 142.00 L 389.00 141.00 L 389.00 140.00 L 390.00 139.00 L 390.00 138.00 L 391.00 137.00 L 391.00 135.00 L 392.00 134.00 L 392.00 133.00 L 393.00 132.00 L 393.00 131.00 L 394.00 130.00 L 394.00 129.00 L 395.00 128.00 L 395.00 126.00 L 396.00 125.00 L 396.00 124.00 L 397.00 123.00 L 397.00 122.00 L 398.00 121.00 L 398.00 119.00 L 399.00 118.00 L 399.00 117.00 L 400.00 116.00 L 400.00 115.00 L 401.00 114.00 L 401.00 113.00 L 402.00 112.00 L 402.00 110.00 L 403.00 109.00 L 403.00 108.00 L 404.00 107.00 L 404.00 106.00 L 405.00 105.00 L 405.00 103.00 L 406.00 102.00 L 406.00 101.00 L 407.00 100.00 L 407.00 99.00 L 408.00 98.00 L 408.00 97.00 L 409.00 96.00 L 409.00 94.00 L 410.00 93.00 L 410.00 92.00 L 411.00 91.00 L 411.00 90.00 L 412.00 89.00 L 412.00 87.00 L 413.00 86.00 L 413.00 85.00 L 414.00 84.00 L 414.00 83.00 L 415.00 82.00 L 415.00 81.00 L 416.00 80.00 L 416.00 79.00 L 417.00 78.00 L 417.00 76.00 L 418.00 75.00 L 418.00 74.00 L 419.00 73.00 L 419.00 72.00 L 420.00 71.00 L 420.00 69.00 L 421.00 68.00 L 421.00 67.00 L 422.00 66.00 L 422.00 65.00 L 423.00 64.00 L 423.00 62.00 L 424.00 61.00 L 424.00 60.00 L 425.00 59.00 L 425.00 58.00 L 426.00 57.00 L 426.00 56.00 L 427.00 55.00 L 427.00 53.00 L 428.00 52.00 L 428.00 51.00 L 429.00 50.00 L 429.00 49.00 L 430.00 48.00 L 430.00 47.00 L 431.00 46.00 L 431.00 44.00 L 432.00 43.00 L 432.00 42.00 L 433.00 41.00 L 433.00 40.00 L 434.00 39.00 L 434.00 37.00 L 435.00 36.00 L 435.00 35.00 L 436.00 34.00 L 436.00 33.00 L 437.00 32.00 L 437.00 30.00 L 438.00 29.00 L 438.00 28.00 L 439.00 27.00 L 439.00 26.00 L 440.00 25.00 L 440.00 24.00 L 441.00 23.00 L 441.00 22.00 L 442.00 21.00 L 442.00 19.00 L 443.00 18.00 L 443.00 17.00 L 444.00 16.00 L 444.00 15.00 L 445.00 14.00 L 445.00 10.00 Z" fill="url(#g)" stroke="#1f2328" stroke-width="10" stroke-linejoin="round" />
  <!-- Checkmark -->
  <path d="M 351.00 88.00 L 359.00 88.00 L 360.00 89.00 L 360.00 97.00 L 279.00 178.00 L 279.00 179.00 L 250.00 208.00 L 250.00 209.00 L 226.00 233.00 L 226.00 234.00 L 208.00 252.00 L 208.00 253.00 L 191.00 270.00 L 191.00 271.00 L 185.00 277.00 L 184.00 277.00 L 181.00 280.00 L 180.00 280.00 L 179.00 281.00 L 171.00 281.00 L 170.00 280.00 L 169.00 280.00 L 157.00 268.00 L 157.00 267.00 L 150.00 260.00 L 150.00 259.00 L 146.00 255.00 L 146.00 254.00 L 141.00 249.00 L 141.00 248.00 L 136.00 243.00 L 136.00 242.00 L 132.00 238.00 L 132.00 237.00 L 128.00 233.00 L 128.00 232.00 L 124.00 228.00 L 124.00 227.00 L 120.00 223.00 L 120.00 222.00 L 117.00 219.00 L 117.00 218.00 L 114.00 215.00 L 114.00 214.00 L 111.00 211.00 L 111.00 210.00 L 109.00 208.00 L 109.00 207.00 L 106.00 204.00 L 106.00 203.00 L 104.00 201.00 L 104.00 200.00 L 102.00 198.00 L 102.00 197.00 L 99.00 194.00 L 99.00 193.00 L 98.00 192.00 L 98.00 183.00 L 99.00 182.00 L 99.00 181.00 L 102.00 178.00 L 111.00 178.00 L 112.00 179.00 L 113.00 179.00 L 114.00 180.00 L 115.00 180.00 L 117.00 182.00 L 118.00 182.00 L 120.00 184.00 L 121.00 184.00 L 123.00 186.00 L 124.00 186.00 L 126.00 188.00 L 127.00 188.00 L 129.00 190.00 L 130.00 190.00 L 131.00 191.00 L 132.00 191.00 L 134.00 193.00 L 135.00 193.00 L 137.00 195.00 L 138.00 195.00 L 140.00 197.00 L 141.00 197.00 L 144.00 200.00 L 145.00 200.00 L 146.00 201.00 L 147.00 201.00 L 149.00 203.00 L 150.00 203.00 L 152.00 205.00 L 153.00 205.00 L 154.00 206.00 L 155.00 206.00 L 157.00 208.00 L 158.00 208.00 L 159.00 209.00 L 160.00 209.00 L 162.00 211.00 L 163.00 211.00 L 164.00 212.00 L 165.00 212.00 L 166.00 213.00 L 170.00 213.00 L 173.00 210.00 L 174.00 210.00 L 176.00 208.00 L 177.00 208.00 L 179.00 206.00 L 180.00 206.00 L 182.00 204.00 L 183.00 204.00 L 185.00 202.00 L 186.00 202.00 L 188.00 200.00 L 189.00 200.00 L 191.00 198.00 L 192.00 198.00 L 195.00 195.00 L 196.00 195.00 L 198.00 193.00 L 199.00 193.00 L 201.00 191.00 L 202.00 191.00 L 204.00 189.00 L 205.00 189.00 L 207.00 187.00 L 208.00 187.00 L 211.00 184.00 L 212.00 184.00 L 214.00 182.00 L 215.00 182.00 L 217.00 180.00 L 218.00 180.00 L 220.00 178.00 L 221.00 178.00 L 223.00 176.00 L 224.00 176.00 L 227.00 173.00 L 228.00 173.00 L 230.00 171.00 L 231.00 171.00 L 233.00 169.00 L 234.00 169.00 L 236.00 167.00 L 237.00 167.00 L 239.00 165.00 L 240.00 165.00 L 242.00 163.00 L 243.00 163.00 L 246.00 160.00 L 247.00 160.00 L 249.00 158.00 L 250.00 158.00 L 252.00 156.00 L 253.00 156.00 L 255.00 154.00 L 256.00 154.00 L 258.00 152.00 L 259.00 152.00 L 262.00 149.00 L 263.00 149.00 L 265.00 147.00 L 266.00 147.00 L 268.00 145.00 L 269.00 145.00 L 271.00 143.00 L 272.00 143.00 L 275.00 140.00 L 276.00 140.00 L 278.00 138.00 L 279.00 138.00 L 281.00 136.00 L 282.00 136.00 L 284.00 134.00 L 285.00 134.00 L 287.00 132.00 L 288.00 132.00 L 290.00 130.00 L 291.00 130.00 L 293.00 128.00 L 294.00 128.00 L 296.00 126.00 L 297.00 126.00 L 300.00 123.00 L 301.00 123.00 L 303.00 121.00 L 304.00 121.00 L 306.00 119.00 L 307.00 119.00 L 309.00 117.00 L 310.00 117.00 L 313.00 114.00 L 314.00 114.00 L 316.00 112.00 L 317.00 112.00 L 319.00 110.00 L 320.00 110.00 L 322.00 108.00 L 323.00 108.00 L 326.00 105.00 L 327.00 105.00 L 329.00 103.00 L 330.00 103.00 L 332.00 101.00 L 333.00 101.00 L 335.00 99.00 L 336.00 99.00 L 338.00 97.00 L 339.00 97.00 L 342.00 94.00 L 343.00 94.00 L 345.00 92.00 L 346.00 92.00 L 348.00 90.00 L 349.00 90.00 Z" fill="#1f2328"/>
</svg>
